<mxfile host="app.diagrams.net" modified="2023-05-09T18:36:34.282Z" agent="Mozilla/5.0 (Windows NT 10.0; Win64; x64) AppleWebKit/537.36 (KHTML, like Gecko) Chrome/112.0.0.0 Safari/537.36" etag="pbfooVqGvKKsupszHgj7" version="21.2.9" type="github">
  <diagram name="Σελίδα-1" id="fe9gfnaxFHkDQtzy1zNA">
    <mxGraphModel dx="2471" dy="2045" grid="1" gridSize="10" guides="1" tooltips="1" connect="1" arrows="1" fold="1" page="1" pageScale="1" pageWidth="827" pageHeight="1169" math="0" shadow="0">
      <root>
        <mxCell id="0" />
        <mxCell id="1" parent="0" />
        <mxCell id="phPr1kaGQBQbVtV2x5ig-69" style="edgeStyle=orthogonalEdgeStyle;rounded=0;orthogonalLoop=1;jettySize=auto;html=1;entryX=0.5;entryY=1;entryDx=0;entryDy=0;endArrow=block;endFill=0;" parent="1" target="phPr1kaGQBQbVtV2x5ig-1" edge="1" source="ox3SeeigsEidscOepQ7Z-1">
          <mxGeometry relative="1" as="geometry">
            <mxPoint x="190" y="220" as="targetPoint" />
            <mxPoint x="280" y="290" as="sourcePoint" />
          </mxGeometry>
        </mxCell>
        <mxCell id="phPr1kaGQBQbVtV2x5ig-1" value="username:string&lt;br&gt;name:string&lt;br&gt;surname:string&lt;br&gt;logged_as:string&lt;br&gt;email:string&lt;br&gt;telephone:longint" style="rounded=0;whiteSpace=wrap;html=1;" parent="1" vertex="1">
          <mxGeometry x="230" y="100" width="100" height="90" as="geometry" />
        </mxCell>
        <mxCell id="phPr1kaGQBQbVtV2x5ig-68" style="edgeStyle=orthogonalEdgeStyle;rounded=0;orthogonalLoop=1;jettySize=auto;html=1;exitX=0.5;exitY=0;exitDx=0;exitDy=0;entryX=0;entryY=1;entryDx=0;entryDy=0;endArrow=block;endFill=0;" parent="1" source="phPr1kaGQBQbVtV2x5ig-11" target="phPr1kaGQBQbVtV2x5ig-2" edge="1">
          <mxGeometry relative="1" as="geometry">
            <Array as="points">
              <mxPoint x="-80" y="150" />
            </Array>
          </mxGeometry>
        </mxCell>
        <mxCell id="phPr1kaGQBQbVtV2x5ig-70" style="edgeStyle=orthogonalEdgeStyle;rounded=0;orthogonalLoop=1;jettySize=auto;html=1;entryX=1;entryY=1;entryDx=0;entryDy=0;endArrow=block;endFill=0;" parent="1" source="phPr1kaGQBQbVtV2x5ig-8" target="phPr1kaGQBQbVtV2x5ig-2" edge="1">
          <mxGeometry relative="1" as="geometry">
            <Array as="points">
              <mxPoint x="690" y="150" />
            </Array>
          </mxGeometry>
        </mxCell>
        <mxCell id="phPr1kaGQBQbVtV2x5ig-2" value="Χρήστης" style="rounded=0;whiteSpace=wrap;html=1;" parent="1" vertex="1">
          <mxGeometry x="230" y="70" width="100" height="30" as="geometry" />
        </mxCell>
        <mxCell id="phPr1kaGQBQbVtV2x5ig-5" style="edgeStyle=orthogonalEdgeStyle;rounded=0;orthogonalLoop=1;jettySize=auto;html=1;exitX=0.5;exitY=1;exitDx=0;exitDy=0;" parent="1" source="phPr1kaGQBQbVtV2x5ig-1" target="phPr1kaGQBQbVtV2x5ig-1" edge="1">
          <mxGeometry relative="1" as="geometry" />
        </mxCell>
        <mxCell id="phPr1kaGQBQbVtV2x5ig-7" value="SelectCourse()&lt;br&gt;DeleteCourse()&lt;br&gt;SelectFile()&lt;br&gt;downloadFile()&lt;br&gt;selectDeleteActivity()&lt;br&gt;selectNewActivity()&lt;br&gt;selectViewActivityDetails()&lt;br&gt;selectDeleteActivityDetails()&lt;br&gt;selectAddActivityDetails()&lt;br&gt;getStudent():Student" style="rounded=0;whiteSpace=wrap;html=1;" parent="1" vertex="1">
          <mxGeometry x="620" y="321" width="160" height="139" as="geometry" />
        </mxCell>
        <mxCell id="phPr1kaGQBQbVtV2x5ig-8" value="Μαθητής" style="rounded=0;whiteSpace=wrap;html=1;" parent="1" vertex="1">
          <mxGeometry x="620" y="229" width="160" height="30" as="geometry" />
        </mxCell>
        <mxCell id="phPr1kaGQBQbVtV2x5ig-9" style="edgeStyle=orthogonalEdgeStyle;rounded=0;orthogonalLoop=1;jettySize=auto;html=1;exitX=0.5;exitY=1;exitDx=0;exitDy=0;" parent="1" source="phPr1kaGQBQbVtV2x5ig-7" target="phPr1kaGQBQbVtV2x5ig-7" edge="1">
          <mxGeometry relative="1" as="geometry" />
        </mxCell>
        <mxCell id="phPr1kaGQBQbVtV2x5ig-10" value="num_of_children:int&lt;br&gt;name_of_child:string&lt;br&gt;" style="rounded=0;whiteSpace=wrap;html=1;" parent="1" vertex="1">
          <mxGeometry x="-180" y="288" width="180" height="71" as="geometry" />
        </mxCell>
        <mxCell id="phPr1kaGQBQbVtV2x5ig-11" value="Γονιός" style="rounded=0;whiteSpace=wrap;html=1;" parent="1" vertex="1">
          <mxGeometry x="-180" y="259" width="180" height="30" as="geometry" />
        </mxCell>
        <mxCell id="phPr1kaGQBQbVtV2x5ig-71" style="edgeStyle=orthogonalEdgeStyle;rounded=0;orthogonalLoop=1;jettySize=auto;html=1;entryX=0;entryY=0;entryDx=0;entryDy=0;endArrow=block;endFill=0;" parent="1" target="phPr1kaGQBQbVtV2x5ig-13" edge="1">
          <mxGeometry relative="1" as="geometry">
            <Array as="points">
              <mxPoint x="90" y="320" />
              <mxPoint x="236" y="320" />
            </Array>
            <mxPoint x="90" y="440" as="sourcePoint" />
          </mxGeometry>
        </mxCell>
        <mxCell id="phPr1kaGQBQbVtV2x5ig-12" style="edgeStyle=orthogonalEdgeStyle;rounded=0;orthogonalLoop=1;jettySize=auto;html=1;exitX=0.5;exitY=1;exitDx=0;exitDy=0;" parent="1" source="phPr1kaGQBQbVtV2x5ig-10" target="phPr1kaGQBQbVtV2x5ig-10" edge="1">
          <mxGeometry relative="1" as="geometry" />
        </mxCell>
        <mxCell id="phPr1kaGQBQbVtV2x5ig-74" style="edgeStyle=orthogonalEdgeStyle;rounded=0;orthogonalLoop=1;jettySize=auto;html=1;exitX=0.5;exitY=0;exitDx=0;exitDy=0;endArrow=block;endFill=0;" parent="1" source="phPr1kaGQBQbVtV2x5ig-20" target="phPr1kaGQBQbVtV2x5ig-13" edge="1">
          <mxGeometry relative="1" as="geometry">
            <mxPoint x="280" y="370" as="targetPoint" />
            <mxPoint x="286" y="470" as="sourcePoint" />
          </mxGeometry>
        </mxCell>
        <mxCell id="phPr1kaGQBQbVtV2x5ig-13" value="works_as:string&lt;br&gt;school:School" style="rounded=0;whiteSpace=wrap;html=1;" parent="1" vertex="1">
          <mxGeometry x="236" y="321" width="100" height="40" as="geometry" />
        </mxCell>
        <mxCell id="phPr1kaGQBQbVtV2x5ig-72" style="edgeStyle=orthogonalEdgeStyle;rounded=0;orthogonalLoop=1;jettySize=auto;html=1;entryX=1;entryY=1;entryDx=0;entryDy=0;endArrow=block;endFill=0;" parent="1" target="phPr1kaGQBQbVtV2x5ig-14" edge="1">
          <mxGeometry relative="1" as="geometry">
            <mxPoint x="460" y="480" as="sourcePoint" />
            <Array as="points">
              <mxPoint x="460" y="480" />
              <mxPoint x="460" y="320" />
            </Array>
          </mxGeometry>
        </mxCell>
        <mxCell id="phPr1kaGQBQbVtV2x5ig-14" value="Εργαζόμενος" style="rounded=0;whiteSpace=wrap;html=1;" parent="1" vertex="1">
          <mxGeometry x="236" y="291" width="100" height="30" as="geometry" />
        </mxCell>
        <mxCell id="phPr1kaGQBQbVtV2x5ig-15" style="edgeStyle=orthogonalEdgeStyle;rounded=0;orthogonalLoop=1;jettySize=auto;html=1;exitX=0.5;exitY=1;exitDx=0;exitDy=0;" parent="1" source="phPr1kaGQBQbVtV2x5ig-13" target="phPr1kaGQBQbVtV2x5ig-13" edge="1">
          <mxGeometry relative="1" as="geometry" />
        </mxCell>
        <mxCell id="phPr1kaGQBQbVtV2x5ig-158" style="edgeStyle=none;shape=connector;rounded=0;orthogonalLoop=1;jettySize=auto;html=1;exitX=1;exitY=0;exitDx=0;exitDy=0;entryX=0.5;entryY=0;entryDx=0;entryDy=0;labelBackgroundColor=default;strokeColor=default;fontFamily=Helvetica;fontSize=11;fontColor=default;endArrow=none;" parent="1" source="phPr1kaGQBQbVtV2x5ig-16" edge="1">
          <mxGeometry relative="1" as="geometry">
            <mxPoint x="190" y="623.5" as="targetPoint" />
          </mxGeometry>
        </mxCell>
        <mxCell id="phPr1kaGQBQbVtV2x5ig-16" value="num_of_courses:int&lt;br&gt;courses:string&lt;br&gt;" style="rounded=0;whiteSpace=wrap;html=1;" parent="1" vertex="1">
          <mxGeometry y="471" width="180" height="40" as="geometry" />
        </mxCell>
        <mxCell id="phPr1kaGQBQbVtV2x5ig-157" style="edgeStyle=none;shape=connector;rounded=0;orthogonalLoop=1;jettySize=auto;html=1;exitX=0;exitY=0.75;exitDx=0;exitDy=0;entryX=0.4;entryY=0;entryDx=0;entryDy=0;entryPerimeter=0;labelBackgroundColor=default;strokeColor=default;fontFamily=Helvetica;fontSize=11;fontColor=default;endArrow=none;" parent="1" source="phPr1kaGQBQbVtV2x5ig-17" edge="1">
          <mxGeometry relative="1" as="geometry">
            <mxPoint x="-80" y="610" as="targetPoint" />
          </mxGeometry>
        </mxCell>
        <mxCell id="phPr1kaGQBQbVtV2x5ig-17" value="Καθηγητής" style="rounded=0;whiteSpace=wrap;html=1;" parent="1" vertex="1">
          <mxGeometry y="440" width="180" height="30" as="geometry" />
        </mxCell>
        <mxCell id="phPr1kaGQBQbVtV2x5ig-18" style="edgeStyle=orthogonalEdgeStyle;rounded=0;orthogonalLoop=1;jettySize=auto;html=1;exitX=0.5;exitY=1;exitDx=0;exitDy=0;" parent="1" source="phPr1kaGQBQbVtV2x5ig-16" target="phPr1kaGQBQbVtV2x5ig-16" edge="1">
          <mxGeometry relative="1" as="geometry" />
        </mxCell>
        <mxCell id="phPr1kaGQBQbVtV2x5ig-156" style="edgeStyle=none;shape=connector;rounded=0;orthogonalLoop=1;jettySize=auto;html=1;exitX=0.5;exitY=1;exitDx=0;exitDy=0;labelBackgroundColor=default;strokeColor=default;fontFamily=Helvetica;fontSize=11;fontColor=default;endArrow=none;entryX=0.65;entryY=-0.133;entryDx=0;entryDy=0;entryPerimeter=0;" parent="1" source="phPr1kaGQBQbVtV2x5ig-19" target="phPr1kaGQBQbVtV2x5ig-53" edge="1">
          <mxGeometry relative="1" as="geometry">
            <mxPoint x="286" y="780" as="targetPoint" />
          </mxGeometry>
        </mxCell>
        <mxCell id="phPr1kaGQBQbVtV2x5ig-19" value="selectNewTypeOfEvent()&lt;br&gt;selectNewEvent()&lt;br&gt;chooseDate()&lt;br&gt;checkTheFields()&lt;br&gt;selectSave()&lt;br&gt;choose_teacher()&lt;br&gt;data_complention()&lt;br&gt;choose_student()&lt;br&gt;choose_add()&lt;br&gt;add_the_number&amp;nbsp;&amp;nbsp;&lt;br&gt;add_description&lt;br&gt;submit()" style="rounded=0;whiteSpace=wrap;html=1;" parent="1" vertex="1">
          <mxGeometry x="218" y="420" width="136" height="190" as="geometry" />
        </mxCell>
        <mxCell id="phPr1kaGQBQbVtV2x5ig-20" value="Διευθυντής" style="rounded=0;whiteSpace=wrap;html=1;" parent="1" vertex="1">
          <mxGeometry x="214" y="389" width="140" height="31" as="geometry" />
        </mxCell>
        <mxCell id="phPr1kaGQBQbVtV2x5ig-21" style="edgeStyle=orthogonalEdgeStyle;rounded=0;orthogonalLoop=1;jettySize=auto;html=1;exitX=0.5;exitY=1;exitDx=0;exitDy=0;" parent="1" source="phPr1kaGQBQbVtV2x5ig-19" target="phPr1kaGQBQbVtV2x5ig-19" edge="1">
          <mxGeometry relative="1" as="geometry" />
        </mxCell>
        <mxCell id="phPr1kaGQBQbVtV2x5ig-22" value="years_work_history:int&lt;br&gt;specialization:string&lt;br&gt;" style="rounded=0;whiteSpace=wrap;html=1;" parent="1" vertex="1">
          <mxGeometry x="414" y="510" width="116" height="40" as="geometry" />
        </mxCell>
        <mxCell id="phPr1kaGQBQbVtV2x5ig-23" value="Ψυχολόγος" style="rounded=0;whiteSpace=wrap;html=1;" parent="1" vertex="1">
          <mxGeometry x="414" y="480" width="116" height="29" as="geometry" />
        </mxCell>
        <mxCell id="phPr1kaGQBQbVtV2x5ig-24" style="edgeStyle=orthogonalEdgeStyle;rounded=0;orthogonalLoop=1;jettySize=auto;html=1;exitX=0.5;exitY=1;exitDx=0;exitDy=0;" parent="1" source="phPr1kaGQBQbVtV2x5ig-22" target="phPr1kaGQBQbVtV2x5ig-22" edge="1">
          <mxGeometry relative="1" as="geometry" />
        </mxCell>
        <mxCell id="phPr1kaGQBQbVtV2x5ig-25" value="&lt;br&gt;name_of_student:string&lt;br&gt;degree:int&lt;br&gt;comments:string" style="rounded=0;whiteSpace=wrap;html=1;" parent="1" vertex="1">
          <mxGeometry x="880" y="770" width="120" height="60" as="geometry" />
        </mxCell>
        <mxCell id="phPr1kaGQBQbVtV2x5ig-152" style="edgeStyle=none;shape=connector;rounded=0;orthogonalLoop=1;jettySize=auto;html=1;exitX=0.5;exitY=0;exitDx=0;exitDy=0;entryX=1;entryY=1;entryDx=0;entryDy=0;labelBackgroundColor=default;strokeColor=default;fontFamily=Helvetica;fontSize=11;fontColor=default;endArrow=none;" parent="1" source="phPr1kaGQBQbVtV2x5ig-26" target="phPr1kaGQBQbVtV2x5ig-40" edge="1">
          <mxGeometry relative="1" as="geometry" />
        </mxCell>
        <mxCell id="phPr1kaGQBQbVtV2x5ig-26" value="Βαθμός" style="rounded=0;whiteSpace=wrap;html=1;" parent="1" vertex="1">
          <mxGeometry x="880" y="740" width="120" height="30" as="geometry" />
        </mxCell>
        <mxCell id="phPr1kaGQBQbVtV2x5ig-27" style="edgeStyle=orthogonalEdgeStyle;rounded=0;orthogonalLoop=1;jettySize=auto;html=1;exitX=0.5;exitY=1;exitDx=0;exitDy=0;" parent="1" source="phPr1kaGQBQbVtV2x5ig-25" target="phPr1kaGQBQbVtV2x5ig-25" edge="1">
          <mxGeometry relative="1" as="geometry" />
        </mxCell>
        <mxCell id="phPr1kaGQBQbVtV2x5ig-28" value="date:Date" style="rounded=0;whiteSpace=wrap;html=1;" parent="1" vertex="1">
          <mxGeometry x="680" y="780" width="120" height="40" as="geometry" />
        </mxCell>
        <mxCell id="phPr1kaGQBQbVtV2x5ig-29" value="Γραπτό" style="rounded=0;whiteSpace=wrap;html=1;" parent="1" vertex="1">
          <mxGeometry x="680" y="750" width="120" height="30" as="geometry" />
        </mxCell>
        <mxCell id="phPr1kaGQBQbVtV2x5ig-30" style="edgeStyle=orthogonalEdgeStyle;rounded=0;orthogonalLoop=1;jettySize=auto;html=1;exitX=0.5;exitY=1;exitDx=0;exitDy=0;" parent="1" source="phPr1kaGQBQbVtV2x5ig-28" target="phPr1kaGQBQbVtV2x5ig-28" edge="1">
          <mxGeometry relative="1" as="geometry" />
        </mxCell>
        <mxCell id="phPr1kaGQBQbVtV2x5ig-155" value="" style="edgeStyle=none;shape=connector;rounded=0;orthogonalLoop=1;jettySize=auto;html=1;labelBackgroundColor=default;strokeColor=default;fontFamily=Helvetica;fontSize=11;fontColor=default;endArrow=none;" parent="1" source="phPr1kaGQBQbVtV2x5ig-31" target="phPr1kaGQBQbVtV2x5ig-2" edge="1">
          <mxGeometry relative="1" as="geometry" />
        </mxCell>
        <mxCell id="phPr1kaGQBQbVtV2x5ig-31" value="number:int&lt;br&gt;type:string&lt;br&gt;city:string&lt;br&gt;" style="rounded=0;whiteSpace=wrap;html=1;" parent="1" vertex="1">
          <mxGeometry x="230" width="100" height="40" as="geometry" />
        </mxCell>
        <mxCell id="phPr1kaGQBQbVtV2x5ig-32" value="Σχολείο" style="rounded=0;whiteSpace=wrap;html=1;" parent="1" vertex="1">
          <mxGeometry x="230" y="-30" width="100" height="30" as="geometry" />
        </mxCell>
        <mxCell id="phPr1kaGQBQbVtV2x5ig-34" value="num_of_students:int&lt;br&gt;students:string&lt;br&gt;teachers:string" style="rounded=0;whiteSpace=wrap;html=1;" parent="1" vertex="1">
          <mxGeometry x="870" y="319" width="120" height="40" as="geometry" />
        </mxCell>
        <mxCell id="phPr1kaGQBQbVtV2x5ig-35" value="Τάξη" style="rounded=0;whiteSpace=wrap;html=1;" parent="1" vertex="1">
          <mxGeometry x="870" y="289" width="120" height="30" as="geometry" />
        </mxCell>
        <mxCell id="phPr1kaGQBQbVtV2x5ig-36" style="edgeStyle=orthogonalEdgeStyle;rounded=0;orthogonalLoop=1;jettySize=auto;html=1;exitX=0.5;exitY=1;exitDx=0;exitDy=0;" parent="1" source="phPr1kaGQBQbVtV2x5ig-34" target="phPr1kaGQBQbVtV2x5ig-34" edge="1">
          <mxGeometry relative="1" as="geometry" />
        </mxCell>
        <mxCell id="phPr1kaGQBQbVtV2x5ig-150" style="edgeStyle=none;shape=connector;rounded=0;orthogonalLoop=1;jettySize=auto;html=1;exitX=0.5;exitY=1;exitDx=0;exitDy=0;labelBackgroundColor=default;strokeColor=default;fontFamily=Helvetica;fontSize=11;fontColor=default;endArrow=none;" parent="1" source="phPr1kaGQBQbVtV2x5ig-41" edge="1">
          <mxGeometry relative="1" as="geometry">
            <mxPoint x="840" y="620" as="targetPoint" />
          </mxGeometry>
        </mxCell>
        <mxCell id="phPr1kaGQBQbVtV2x5ig-37" value="getProgram()&lt;br&gt;deleteFromProgram()&lt;br&gt;addNewActivityToProgram()&lt;br&gt;updateProgram()&lt;br&gt;checkTheDate()" style="rounded=0;whiteSpace=wrap;html=1;" parent="1" vertex="1">
          <mxGeometry x="770" y="500" width="150" height="70" as="geometry" />
        </mxCell>
        <mxCell id="phPr1kaGQBQbVtV2x5ig-38" value="Πρόγραμμα μαθητή" style="rounded=0;whiteSpace=wrap;html=1;" parent="1" vertex="1">
          <mxGeometry x="770" y="470" width="150" height="30" as="geometry" />
        </mxCell>
        <mxCell id="phPr1kaGQBQbVtV2x5ig-39" style="edgeStyle=orthogonalEdgeStyle;rounded=0;orthogonalLoop=1;jettySize=auto;html=1;exitX=0.5;exitY=1;exitDx=0;exitDy=0;" parent="1" source="phPr1kaGQBQbVtV2x5ig-37" target="phPr1kaGQBQbVtV2x5ig-37" edge="1">
          <mxGeometry relative="1" as="geometry" />
        </mxCell>
        <mxCell id="phPr1kaGQBQbVtV2x5ig-151" style="edgeStyle=none;shape=connector;rounded=0;orthogonalLoop=1;jettySize=auto;html=1;exitX=0;exitY=1;exitDx=0;exitDy=0;entryX=0.5;entryY=0;entryDx=0;entryDy=0;labelBackgroundColor=default;strokeColor=default;fontFamily=Helvetica;fontSize=11;fontColor=default;endArrow=none;" parent="1" source="phPr1kaGQBQbVtV2x5ig-40" target="phPr1kaGQBQbVtV2x5ig-29" edge="1">
          <mxGeometry relative="1" as="geometry" />
        </mxCell>
        <mxCell id="phPr1kaGQBQbVtV2x5ig-40" value="name_of_course:string" style="rounded=0;whiteSpace=wrap;html=1;" parent="1" vertex="1">
          <mxGeometry x="780" y="630" width="120" height="40" as="geometry" />
        </mxCell>
        <mxCell id="phPr1kaGQBQbVtV2x5ig-42" style="edgeStyle=orthogonalEdgeStyle;rounded=0;orthogonalLoop=1;jettySize=auto;html=1;exitX=0.5;exitY=1;exitDx=0;exitDy=0;" parent="1" source="phPr1kaGQBQbVtV2x5ig-40" target="phPr1kaGQBQbVtV2x5ig-40" edge="1">
          <mxGeometry relative="1" as="geometry" />
        </mxCell>
        <mxCell id="phPr1kaGQBQbVtV2x5ig-43" value="chapters:string&lt;br&gt;num_of_pages:int" style="rounded=0;whiteSpace=wrap;html=1;" parent="1" vertex="1">
          <mxGeometry x="1080" y="794.5" width="100" height="40" as="geometry" />
        </mxCell>
        <mxCell id="phPr1kaGQBQbVtV2x5ig-44" value="Ύλη μαθήματος" style="rounded=0;whiteSpace=wrap;html=1;" parent="1" vertex="1">
          <mxGeometry x="1080" y="764.5" width="100" height="30" as="geometry" />
        </mxCell>
        <mxCell id="phPr1kaGQBQbVtV2x5ig-45" style="edgeStyle=orthogonalEdgeStyle;rounded=0;orthogonalLoop=1;jettySize=auto;html=1;exitX=0.5;exitY=1;exitDx=0;exitDy=0;" parent="1" source="phPr1kaGQBQbVtV2x5ig-43" target="phPr1kaGQBQbVtV2x5ig-43" edge="1">
          <mxGeometry relative="1" as="geometry" />
        </mxCell>
        <mxCell id="phPr1kaGQBQbVtV2x5ig-49" value="update()" style="rounded=0;whiteSpace=wrap;html=1;" parent="1" vertex="1">
          <mxGeometry x="590" y="569" width="120" height="40" as="geometry" />
        </mxCell>
        <mxCell id="phPr1kaGQBQbVtV2x5ig-50" value="Απουσία" style="rounded=0;whiteSpace=wrap;html=1;" parent="1" vertex="1">
          <mxGeometry x="590" y="481" width="120" height="30" as="geometry" />
        </mxCell>
        <mxCell id="phPr1kaGQBQbVtV2x5ig-51" style="edgeStyle=orthogonalEdgeStyle;rounded=0;orthogonalLoop=1;jettySize=auto;html=1;exitX=0.5;exitY=1;exitDx=0;exitDy=0;" parent="1" source="phPr1kaGQBQbVtV2x5ig-49" target="phPr1kaGQBQbVtV2x5ig-49" edge="1">
          <mxGeometry relative="1" as="geometry" />
        </mxCell>
        <mxCell id="phPr1kaGQBQbVtV2x5ig-76" style="edgeStyle=orthogonalEdgeStyle;rounded=0;orthogonalLoop=1;jettySize=auto;html=1;exitX=0.5;exitY=0;exitDx=0;exitDy=0;entryX=0;entryY=0.25;entryDx=0;entryDy=0;endArrow=block;endFill=0;" parent="1" source="phPr1kaGQBQbVtV2x5ig-56" target="phPr1kaGQBQbVtV2x5ig-52" edge="1">
          <mxGeometry relative="1" as="geometry" />
        </mxCell>
        <mxCell id="phPr1kaGQBQbVtV2x5ig-77" style="edgeStyle=orthogonalEdgeStyle;rounded=0;orthogonalLoop=1;jettySize=auto;html=1;exitX=0.5;exitY=0;exitDx=0;exitDy=0;entryX=1;entryY=0.25;entryDx=0;entryDy=0;endArrow=block;endFill=0;" parent="1" source="phPr1kaGQBQbVtV2x5ig-59" target="phPr1kaGQBQbVtV2x5ig-52" edge="1">
          <mxGeometry relative="1" as="geometry">
            <Array as="points">
              <mxPoint x="420" y="830" />
            </Array>
          </mxGeometry>
        </mxCell>
        <mxCell id="phPr1kaGQBQbVtV2x5ig-52" value="typeof:boolean&lt;br&gt;details:string" style="rounded=0;whiteSpace=wrap;html=1;" parent="1" vertex="1">
          <mxGeometry x="220" y="820" width="100" height="40" as="geometry" />
        </mxCell>
        <mxCell id="phPr1kaGQBQbVtV2x5ig-53" value="Ανακοίνωση" style="rounded=0;whiteSpace=wrap;html=1;" parent="1" vertex="1">
          <mxGeometry x="220" y="790" width="100" height="30" as="geometry" />
        </mxCell>
        <mxCell id="phPr1kaGQBQbVtV2x5ig-54" style="edgeStyle=orthogonalEdgeStyle;rounded=0;orthogonalLoop=1;jettySize=auto;html=1;exitX=0.5;exitY=1;exitDx=0;exitDy=0;" parent="1" source="phPr1kaGQBQbVtV2x5ig-52" target="phPr1kaGQBQbVtV2x5ig-52" edge="1">
          <mxGeometry relative="1" as="geometry" />
        </mxCell>
        <mxCell id="phPr1kaGQBQbVtV2x5ig-55" value="getEvents():Events&lt;br&gt;addEvent()" style="rounded=0;whiteSpace=wrap;html=1;" parent="1" vertex="1">
          <mxGeometry x="80" y="970" width="100" height="40" as="geometry" />
        </mxCell>
        <mxCell id="phPr1kaGQBQbVtV2x5ig-56" value="Σχολική Εκδήλωση" style="rounded=0;whiteSpace=wrap;html=1;" parent="1" vertex="1">
          <mxGeometry x="80" y="940" width="100" height="30" as="geometry" />
        </mxCell>
        <mxCell id="phPr1kaGQBQbVtV2x5ig-57" style="edgeStyle=orthogonalEdgeStyle;rounded=0;orthogonalLoop=1;jettySize=auto;html=1;exitX=0.5;exitY=1;exitDx=0;exitDy=0;" parent="1" source="phPr1kaGQBQbVtV2x5ig-55" target="phPr1kaGQBQbVtV2x5ig-55" edge="1">
          <mxGeometry relative="1" as="geometry" />
        </mxCell>
        <mxCell id="phPr1kaGQBQbVtV2x5ig-58" value="date:Date&lt;br&gt;approval:boolean&lt;br&gt;trip_field:string" style="rounded=0;whiteSpace=wrap;html=1;" parent="1" vertex="1">
          <mxGeometry x="370" y="969" width="100" height="40" as="geometry" />
        </mxCell>
        <mxCell id="phPr1kaGQBQbVtV2x5ig-59" value="Εκδρομή" style="rounded=0;whiteSpace=wrap;html=1;" parent="1" vertex="1">
          <mxGeometry x="370" y="939" width="100" height="30" as="geometry" />
        </mxCell>
        <mxCell id="phPr1kaGQBQbVtV2x5ig-60" style="edgeStyle=orthogonalEdgeStyle;rounded=0;orthogonalLoop=1;jettySize=auto;html=1;exitX=0.5;exitY=1;exitDx=0;exitDy=0;" parent="1" source="phPr1kaGQBQbVtV2x5ig-58" target="phPr1kaGQBQbVtV2x5ig-58" edge="1">
          <mxGeometry relative="1" as="geometry" />
        </mxCell>
        <mxCell id="phPr1kaGQBQbVtV2x5ig-138" value="getRequests():ContactRequest&lt;br&gt;setDateAndTime()" style="rounded=0;whiteSpace=wrap;html=1;" parent="1" vertex="1">
          <mxGeometry x="410" y="754.5" width="170" height="40" as="geometry" />
        </mxCell>
        <mxCell id="phPr1kaGQBQbVtV2x5ig-139" value="Ραντεβού Ψυχολόγου" style="rounded=0;whiteSpace=wrap;html=1;" parent="1" vertex="1">
          <mxGeometry x="410" y="664.5" width="170" height="30" as="geometry" />
        </mxCell>
        <mxCell id="phPr1kaGQBQbVtV2x5ig-140" style="edgeStyle=orthogonalEdgeStyle;rounded=0;orthogonalLoop=1;jettySize=auto;html=1;exitX=0.5;exitY=1;exitDx=0;exitDy=0;" parent="1" source="phPr1kaGQBQbVtV2x5ig-138" target="phPr1kaGQBQbVtV2x5ig-138" edge="1">
          <mxGeometry relative="1" as="geometry" />
        </mxCell>
        <mxCell id="phPr1kaGQBQbVtV2x5ig-153" value="" style="endArrow=diamondThin;endFill=0;endSize=24;html=1;rounded=0;labelBackgroundColor=default;strokeColor=default;fontFamily=Helvetica;fontSize=11;fontColor=default;shape=connector;entryX=1;entryY=0.75;entryDx=0;entryDy=0;" parent="1" target="phPr1kaGQBQbVtV2x5ig-41" edge="1">
          <mxGeometry width="160" relative="1" as="geometry">
            <mxPoint x="1120" y="760" as="sourcePoint" />
            <mxPoint x="750" y="960" as="targetPoint" />
          </mxGeometry>
        </mxCell>
        <mxCell id="phPr1kaGQBQbVtV2x5ig-159" value="" style="endArrow=diamondThin;endFill=1;endSize=24;html=1;rounded=0;labelBackgroundColor=default;strokeColor=default;fontFamily=Helvetica;fontSize=11;fontColor=default;shape=connector;entryX=1;entryY=1;entryDx=0;entryDy=0;exitX=0.5;exitY=0;exitDx=0;exitDy=0;" parent="1" source="phPr1kaGQBQbVtV2x5ig-35" target="phPr1kaGQBQbVtV2x5ig-32" edge="1">
          <mxGeometry width="160" relative="1" as="geometry">
            <mxPoint x="920" y="280" as="sourcePoint" />
            <mxPoint x="770" y="-20" as="targetPoint" />
            <Array as="points">
              <mxPoint x="920" />
              <mxPoint x="350" />
            </Array>
          </mxGeometry>
        </mxCell>
        <mxCell id="phPr1kaGQBQbVtV2x5ig-160" value="" style="endArrow=diamondThin;endFill=1;endSize=24;html=1;rounded=0;labelBackgroundColor=default;strokeColor=default;fontFamily=Helvetica;fontSize=11;fontColor=default;shape=connector;exitX=0.5;exitY=0;exitDx=0;exitDy=0;entryX=1;entryY=1;entryDx=0;entryDy=0;" parent="1" source="phPr1kaGQBQbVtV2x5ig-38" target="phPr1kaGQBQbVtV2x5ig-7" edge="1">
          <mxGeometry width="160" relative="1" as="geometry">
            <mxPoint x="370" y="480" as="sourcePoint" />
            <mxPoint x="530" y="480" as="targetPoint" />
          </mxGeometry>
        </mxCell>
        <mxCell id="phPr1kaGQBQbVtV2x5ig-161" value="" style="endArrow=diamondThin;endFill=1;endSize=24;html=1;rounded=0;labelBackgroundColor=default;strokeColor=default;fontFamily=Helvetica;fontSize=11;fontColor=default;shape=connector;entryX=0.25;entryY=1;entryDx=0;entryDy=0;exitX=0.5;exitY=0;exitDx=0;exitDy=0;" parent="1" source="phPr1kaGQBQbVtV2x5ig-50" target="phPr1kaGQBQbVtV2x5ig-7" edge="1">
          <mxGeometry width="160" relative="1" as="geometry">
            <mxPoint x="650" y="470" as="sourcePoint" />
            <mxPoint x="530" y="480" as="targetPoint" />
          </mxGeometry>
        </mxCell>
        <mxCell id="phPr1kaGQBQbVtV2x5ig-162" value="" style="endArrow=diamondThin;endFill=1;endSize=24;html=1;rounded=0;labelBackgroundColor=default;strokeColor=default;fontFamily=Helvetica;fontSize=11;fontColor=default;shape=connector;entryX=0.5;entryY=1;entryDx=0;entryDy=0;" parent="1" target="phPr1kaGQBQbVtV2x5ig-22" edge="1">
          <mxGeometry width="160" relative="1" as="geometry">
            <mxPoint x="460" y="660" as="sourcePoint" />
            <mxPoint x="450" y="590" as="targetPoint" />
          </mxGeometry>
        </mxCell>
        <mxCell id="cfDdfRaYYQq03VDsBxe2-6" value="" style="rounded=0;whiteSpace=wrap;html=1;" parent="1" vertex="1">
          <mxGeometry x="-130" y="640" width="100" height="40" as="geometry" />
        </mxCell>
        <mxCell id="cfDdfRaYYQq03VDsBxe2-7" value="Αίτημα επικοινωνίας" style="rounded=0;whiteSpace=wrap;html=1;" parent="1" vertex="1">
          <mxGeometry x="-130" y="610" width="100" height="30" as="geometry" />
        </mxCell>
        <mxCell id="cfDdfRaYYQq03VDsBxe2-8" style="edgeStyle=orthogonalEdgeStyle;rounded=0;orthogonalLoop=1;jettySize=auto;html=1;exitX=0.5;exitY=1;exitDx=0;exitDy=0;" parent="1" source="cfDdfRaYYQq03VDsBxe2-6" target="cfDdfRaYYQq03VDsBxe2-6" edge="1">
          <mxGeometry relative="1" as="geometry" />
        </mxCell>
        <mxCell id="cfDdfRaYYQq03VDsBxe2-12" value="lockForm()&lt;br&gt;suspendInfo()" style="rounded=0;whiteSpace=wrap;html=1;" parent="1" vertex="1">
          <mxGeometry x="130" y="720" width="130" height="40" as="geometry" />
        </mxCell>
        <mxCell id="cfDdfRaYYQq03VDsBxe2-13" value="Πορεία-Κατάσταση Μαθητή" style="rounded=0;whiteSpace=wrap;html=1;" parent="1" vertex="1">
          <mxGeometry x="130" y="623.5" width="130" height="40" as="geometry" />
        </mxCell>
        <mxCell id="cfDdfRaYYQq03VDsBxe2-14" style="edgeStyle=orthogonalEdgeStyle;rounded=0;orthogonalLoop=1;jettySize=auto;html=1;exitX=0.5;exitY=1;exitDx=0;exitDy=0;" parent="1" source="cfDdfRaYYQq03VDsBxe2-12" target="cfDdfRaYYQq03VDsBxe2-12" edge="1">
          <mxGeometry relative="1" as="geometry" />
        </mxCell>
        <mxCell id="cfDdfRaYYQq03VDsBxe2-16" value="" style="endArrow=none;html=1;rounded=0;exitX=1;exitY=1;exitDx=0;exitDy=0;" parent="1" source="cfDdfRaYYQq03VDsBxe2-13" edge="1">
          <mxGeometry width="50" height="50" relative="1" as="geometry">
            <mxPoint x="364" y="580" as="sourcePoint" />
            <mxPoint x="414" y="530" as="targetPoint" />
          </mxGeometry>
        </mxCell>
        <mxCell id="ox3SeeigsEidscOepQ7Z-4" value="" style="edgeStyle=orthogonalEdgeStyle;rounded=0;orthogonalLoop=1;jettySize=auto;html=1;entryX=0.5;entryY=1;entryDx=0;entryDy=0;endArrow=block;endFill=0;" edge="1" parent="1" target="ox3SeeigsEidscOepQ7Z-1">
          <mxGeometry relative="1" as="geometry">
            <mxPoint x="280" y="190" as="targetPoint" />
            <mxPoint x="280" y="290" as="sourcePoint" />
          </mxGeometry>
        </mxCell>
        <mxCell id="ox3SeeigsEidscOepQ7Z-5" style="edgeStyle=orthogonalEdgeStyle;rounded=0;orthogonalLoop=1;jettySize=auto;html=1;" edge="1" parent="1" source="ox3SeeigsEidscOepQ7Z-1">
          <mxGeometry relative="1" as="geometry">
            <mxPoint x="286" y="280" as="targetPoint" />
          </mxGeometry>
        </mxCell>
        <mxCell id="ox3SeeigsEidscOepQ7Z-1" value="getFullname():string&lt;br&gt;getName():string&lt;br&gt;getSurname():string&lt;br&gt;getlogged_as:string&lt;br&gt;" style="rounded=0;whiteSpace=wrap;html=1;" vertex="1" parent="1">
          <mxGeometry x="230" y="190" width="100" height="60" as="geometry" />
        </mxCell>
        <mxCell id="ox3SeeigsEidscOepQ7Z-6" value="selectGrade&amp;amp;Evaluation()&lt;br&gt;completePreviewAndContinue()&lt;br&gt;disputeForGrade()&lt;br&gt;choosePotentialDate()&lt;br&gt;selectCourse()&lt;br&gt;completePreview()&lt;br&gt;selectAnnouncement()&lt;br&gt;fillForm()" style="rounded=0;whiteSpace=wrap;html=1;" vertex="1" parent="1">
          <mxGeometry x="-180" y="360" width="180" height="119" as="geometry" />
        </mxCell>
        <mxCell id="ox3SeeigsEidscOepQ7Z-9" value="type:string&lt;br&gt;size:string" style="rounded=0;whiteSpace=wrap;html=1;" vertex="1" parent="1">
          <mxGeometry x="-40" y="710" width="125" height="40" as="geometry" />
        </mxCell>
        <mxCell id="ox3SeeigsEidscOepQ7Z-10" value="Αρχείο" style="rounded=0;whiteSpace=wrap;html=1;" vertex="1" parent="1">
          <mxGeometry x="-40" y="680" width="120" height="30" as="geometry" />
        </mxCell>
        <mxCell id="ox3SeeigsEidscOepQ7Z-11" style="edgeStyle=orthogonalEdgeStyle;rounded=0;orthogonalLoop=1;jettySize=auto;html=1;exitX=0.5;exitY=1;exitDx=0;exitDy=0;" edge="1" parent="1" source="ox3SeeigsEidscOepQ7Z-9" target="ox3SeeigsEidscOepQ7Z-9">
          <mxGeometry relative="1" as="geometry" />
        </mxCell>
        <mxCell id="ox3SeeigsEidscOepQ7Z-12" style="edgeStyle=none;shape=connector;rounded=0;orthogonalLoop=1;jettySize=auto;html=1;exitX=0.25;exitY=1;exitDx=0;exitDy=0;entryX=0.361;entryY=-0.121;entryDx=0;entryDy=0;entryPerimeter=0;labelBackgroundColor=default;strokeColor=default;fontFamily=Helvetica;fontSize=11;fontColor=default;endArrow=none;" edge="1" parent="1" source="phPr1kaGQBQbVtV2x5ig-16" target="ox3SeeigsEidscOepQ7Z-10">
          <mxGeometry relative="1" as="geometry">
            <mxPoint x="-70" y="620" as="targetPoint" />
            <mxPoint x="50" y="514" as="sourcePoint" />
          </mxGeometry>
        </mxCell>
        <mxCell id="ox3SeeigsEidscOepQ7Z-14" value="selectCourse():string&lt;br&gt;selectStudent():Student&lt;br&gt;selectMissingStudent():Student&lt;br&gt;selectEmergency()&lt;br&gt;selectWriteInfo()&lt;br&gt;writeInfo()&lt;br&gt;editMyInfo()&lt;br&gt;getTeacher():Teacher" style="rounded=0;whiteSpace=wrap;html=1;" vertex="1" parent="1">
          <mxGeometry y="511" width="180" height="119" as="geometry" />
        </mxCell>
        <mxCell id="ox3SeeigsEidscOepQ7Z-16" value="selectFile()&lt;br&gt;checkFileSize():boolean&lt;br&gt;uploadFile()&lt;br&gt;fillDegree()&lt;br&gt;updateDegree()" style="rounded=0;whiteSpace=wrap;html=1;" vertex="1" parent="1">
          <mxGeometry x="-45" y="750" width="130" height="80" as="geometry" />
        </mxCell>
        <mxCell id="ox3SeeigsEidscOepQ7Z-17" value="name_of_Student:string&lt;br&gt;parent_of_kid:string&lt;br&gt;field:string" style="rounded=0;whiteSpace=wrap;html=1;" vertex="1" parent="1">
          <mxGeometry x="130" y="665" width="130" height="60" as="geometry" />
        </mxCell>
        <mxCell id="ox3SeeigsEidscOepQ7Z-19" value="getFile()" style="rounded=0;whiteSpace=wrap;html=1;" vertex="1" parent="1">
          <mxGeometry x="680" y="820" width="120" height="60" as="geometry" />
        </mxCell>
        <mxCell id="ox3SeeigsEidscOepQ7Z-20" value="class:string&lt;br&gt;num_of_courses:int&lt;br&gt;school:School" style="rounded=0;whiteSpace=wrap;html=1;" vertex="1" parent="1">
          <mxGeometry x="620" y="259" width="160" height="60" as="geometry" />
        </mxCell>
        <mxCell id="ox3SeeigsEidscOepQ7Z-21" value="getDegree():Degree&lt;br&gt;finalizeDegree():double&lt;br&gt;not_finalize_degree()" style="rounded=0;whiteSpace=wrap;html=1;" vertex="1" parent="1">
          <mxGeometry x="880" y="830" width="120" height="60" as="geometry" />
        </mxCell>
        <mxCell id="ox3SeeigsEidscOepQ7Z-22" value="getCourse():Course&lt;br&gt;deleteCourse()" style="rounded=0;whiteSpace=wrap;html=1;" vertex="1" parent="1">
          <mxGeometry x="780" y="670" width="120" height="60" as="geometry" />
        </mxCell>
        <mxCell id="ox3SeeigsEidscOepQ7Z-23" value="" style="edgeStyle=none;shape=connector;rounded=0;orthogonalLoop=1;jettySize=auto;html=1;exitX=0.5;exitY=1;exitDx=0;exitDy=0;labelBackgroundColor=default;strokeColor=default;fontFamily=Helvetica;fontSize=11;fontColor=default;endArrow=none;" edge="1" parent="1" source="phPr1kaGQBQbVtV2x5ig-37" target="phPr1kaGQBQbVtV2x5ig-41">
          <mxGeometry relative="1" as="geometry">
            <mxPoint x="840" y="620" as="targetPoint" />
            <mxPoint x="840" y="548" as="sourcePoint" />
          </mxGeometry>
        </mxCell>
        <mxCell id="phPr1kaGQBQbVtV2x5ig-41" value="Μάθημα" style="rounded=0;whiteSpace=wrap;html=1;" parent="1" vertex="1">
          <mxGeometry x="780" y="600" width="120" height="30" as="geometry" />
        </mxCell>
        <mxCell id="ox3SeeigsEidscOepQ7Z-25" value="num_of_absences:int&lt;br&gt;reason:string" style="rounded=0;whiteSpace=wrap;html=1;" vertex="1" parent="1">
          <mxGeometry x="590" y="509" width="120" height="60" as="geometry" />
        </mxCell>
        <mxCell id="ox3SeeigsEidscOepQ7Z-27" value="approveExcursion()" style="rounded=0;whiteSpace=wrap;html=1;" vertex="1" parent="1">
          <mxGeometry x="370" y="1010" width="100" height="60" as="geometry" />
        </mxCell>
        <mxCell id="ox3SeeigsEidscOepQ7Z-29" value="selectRequest()&lt;br&gt;acceptRequest()&lt;br&gt;declineRequest()&lt;br&gt;selectStudent()&lt;br&gt;worryingPerformance()&lt;br&gt;normalPerformance()" style="rounded=0;whiteSpace=wrap;html=1;" vertex="1" parent="1">
          <mxGeometry x="414" y="550" width="120" height="94.5" as="geometry" />
        </mxCell>
        <mxCell id="ox3SeeigsEidscOepQ7Z-30" value="name_of_student:string&lt;br&gt;condition:string&lt;br&gt;date:Date&lt;br&gt;" style="rounded=0;whiteSpace=wrap;html=1;" vertex="1" parent="1">
          <mxGeometry x="410" y="694.5" width="170" height="60" as="geometry" />
        </mxCell>
      </root>
    </mxGraphModel>
  </diagram>
</mxfile>
